<?xml version="1.0" encoding="UTF-8"?>
<svg id="Capa_1" data-name="Capa 1" xmlns="http://www.w3.org/2000/svg" viewBox="0 0 1000 563.17">
  <defs>
    <style>
      .cls-1 {
        fill: #f0602f;
      }

      .cls-1, .cls-2 {
        stroke-width: 0px;
      }

      .cls-2 {
        fill: #539b8a;
      }
    </style>
  </defs>
  <path class="cls-2" d="M0,0h127c81.86,0,142.68,10.15,182.46,30.44,39.78,20.29,72.55,53.28,98.31,98.97,25.76,45.69,38.64,99.03,38.64,160.03,0,43.39-7.21,83.27-21.61,119.64-14.41,36.37-34.3,66.55-59.68,90.54-25.38,24-52.85,40.58-82.43,49.77-29.58,9.19-80.83,13.78-153.77,13.78H0V0ZM111.59,116.9v335.05h49.77c49,0,79.39,1.08,101.47-10.16,22.08-11.24,40.13-30.15,54.17-56.72,14.04-26.57,21.06-59.28,21.06-98.12,0-59.79-16.72-106.16-50.15-139.13-30.12-29.63-73.33-30.92-139.94-30.92h-36.37Z"/>
  <path class="cls-1" d="M556.74,3.22h106.47l225.97,366.36V3.22h110.82v556.73h-106.8l-225.68-365.23v365.23h-110.79V3.22Z"/>
</svg>