<?xml version="1.0" encoding="UTF-8"?>
<svg id="Capa_1" data-name="Capa 1" xmlns="http://www.w3.org/2000/svg" viewBox="0 0 1000 284.74">
  <defs>
    <style>
      .cls-1 {
        fill: #f0602f;
      }

      .cls-1, .cls-2 {
        stroke-width: 0px;
      }

      .cls-2 {
        fill: #539b8a;
      }
    </style>
  </defs>
  <g>
    <path class="cls-2" d="M281.11,0h64.21c41.39,0,72.14,5.13,92.25,15.39,20.11,10.26,36.68,26.94,49.7,50.04,13.02,23.1,19.53,50.07,19.53,80.91,0,21.94-3.64,42.1-10.93,60.49-7.29,18.39-17.34,33.65-30.17,45.78-12.83,12.13-26.72,20.52-41.68,25.16-14.96,4.65-40.87,6.97-77.74,6.97h-65.18V0ZM337.53,59.1v169.4h25.16c24.78,0,40.14.55,51.3-5.14,11.16-5.68,20.29-15.24,27.39-28.68,7.1-13.44,10.65-29.97,10.65-49.61,0-30.23-8.45-53.68-25.36-70.34-15.23-14.98-37.07-15.64-70.76-15.64h-18.39Z"/>
    <path class="cls-1" d="M562.6,1.63h53.83l114.25,185.23V1.63h56.03v281.48h-54l-114.1-184.66v184.66h-56.01V1.63Z"/>
  </g>
  <g>
    <path class="cls-2" d="M0,170.72v-41.38h8.58c6.19,0,10.68.5,13.47,1.49,4.01,1.41,7.15,3.84,9.41,7.31,2.26,3.47,3.39,7.6,3.39,12.41,0,4.14-.9,7.79-2.69,10.94-1.79,3.15-4.12,5.48-6.98,6.98-2.86,1.5-6.87,2.25-12.03,2.25H0ZM3.97,166.81h4.78c5.72,0,9.69-.36,11.9-1.07,3.11-1.01,5.56-2.83,7.34-5.47,1.78-2.63,2.67-5.85,2.67-9.65,0-3.99-.97-7.4-2.9-10.23-1.93-2.83-4.62-4.77-8.07-5.82-2.59-.79-6.85-1.18-12.8-1.18h-2.93v33.42Z"/>
    <path class="cls-2" d="M40.73,140.12h4.02v4.47c1.2-1.76,2.47-3.08,3.8-3.95,1.33-.87,2.72-1.31,4.16-1.31,1.09,0,2.25.35,3.49,1.04l-2.05,3.32c-.83-.36-1.52-.53-2.08-.53-1.31,0-2.58.54-3.8,1.62-1.22,1.08-2.15,2.75-2.78,5.02-.49,1.74-.73,5.27-.73,10.58v10.35h-4.02v-30.61Z"/>
    <path class="cls-2" d="M90.05,140.12v30.61h-3.88v-5.26c-1.65,2.01-3.5,3.52-5.56,4.53s-4.3,1.52-6.74,1.52c-4.33,0-8.03-1.57-11.1-4.71-3.07-3.14-4.6-6.96-4.6-11.46s1.55-8.18,4.64-11.31c3.09-3.13,6.82-4.7,11.17-4.7,2.51,0,4.79.53,6.82,1.6,2.03,1.07,3.82,2.67,5.36,4.81v-5.63h3.88ZM74.31,143.13c-2.19,0-4.21.54-6.07,1.62-1.85,1.08-3.33,2.59-4.43,4.54-1.1,1.95-1.64,4.01-1.64,6.18s.55,4.22,1.66,6.18c1.1,1.97,2.59,3.5,4.45,4.59,1.86,1.1,3.86,1.64,6,1.64s4.2-.54,6.13-1.63c1.93-1.09,3.41-2.56,4.45-4.41,1.04-1.85,1.56-3.94,1.56-6.27,0-3.54-1.17-6.5-3.5-8.88-2.33-2.38-5.2-3.57-8.61-3.57Z"/>
    <path class="cls-2" d="M94.77,140.12h4.05l9.38,22.22,9.77-22.22h.71l9.83,22.22,9.56-22.22h4.1l-13.3,30.61h-.73l-9.79-21.91-9.78,21.91h-.73l-13.07-30.61Z"/>
    <path class="cls-2" d="M148.15,127.52c.9,0,1.66.32,2.3.96.63.64.95,1.41.95,2.31s-.32,1.64-.95,2.28c-.63.64-1.4.96-2.3.96s-1.63-.32-2.27-.96c-.63-.64-.95-1.4-.95-2.28s.32-1.67.95-2.31c.63-.64,1.39-.96,2.27-.96ZM146.19,140.12h3.94v30.61h-3.94v-30.61Z"/>
    <path class="cls-2" d="M158.32,140.12h3.94v5.49c1.58-2.1,3.32-3.67,5.23-4.71s3.99-1.56,6.24-1.56,4.32.58,6.09,1.74c1.77,1.16,3.08,2.73,3.92,4.7s1.27,5.04,1.27,9.2v15.75h-3.94v-14.6c0-3.53-.15-5.88-.44-7.06-.46-2.03-1.33-3.55-2.63-4.57-1.29-1.02-2.98-1.53-5.06-1.53-2.38,0-4.52.79-6.4,2.36-1.89,1.58-3.13,3.53-3.73,5.85-.38,1.52-.56,4.29-.56,8.33v11.22h-3.94v-30.61Z"/>
    <path class="cls-2" d="M219.84,140.12h3.94v24.39c0,4.29-.38,7.44-1.13,9.42-1.03,2.81-2.82,4.98-5.37,6.5-2.55,1.52-5.62,2.28-9.2,2.28-2.63,0-4.98-.37-7.07-1.11-2.09-.74-3.79-1.74-5.11-2.99-1.31-1.25-2.52-3.08-3.63-5.49h4.28c1.16,2.03,2.67,3.53,4.51,4.5,1.84.97,4.12,1.46,6.84,1.46s4.95-.5,6.8-1.5c1.85-1,3.17-2.26,3.96-3.77.79-1.51,1.18-3.96,1.18-7.33v-1.58c-1.48,1.88-3.29,3.31-5.43,4.32-2.14,1-4.41,1.5-6.81,1.5-2.82,0-5.46-.7-7.94-2.1-2.48-1.4-4.39-3.28-5.74-5.64-1.35-2.36-2.03-4.96-2.03-7.79s.7-5.47,2.11-7.92c1.41-2.45,3.36-4.38,5.84-5.81,2.49-1.43,5.11-2.14,7.87-2.14,2.29,0,4.43.47,6.41,1.42,1.98.95,3.89,2.51,5.73,4.68v-5.32ZM208.22,143.13c-2.23,0-4.3.54-6.22,1.62-1.91,1.08-3.41,2.57-4.5,4.47-1.09,1.9-1.63,3.96-1.63,6.17,0,3.36,1.13,6.13,3.38,8.33,2.25,2.19,5.17,3.29,8.75,3.29s6.53-1.09,8.73-3.26c2.2-2.18,3.31-5.04,3.31-8.58,0-2.31-.51-4.36-1.52-6.17-1.01-1.81-2.45-3.24-4.3-4.29-1.86-1.05-3.85-1.58-5.99-1.58Z"/>
  </g>
  <g>
    <path class="cls-1" d="M843.5,171.27v-43.31h.94l28.83,33.2v-33.2h4.27v43.31h-.97l-28.59-32.8v32.8h-4.48Z"/>
    <path class="cls-1" d="M902.57,138.41c4.94,0,9.03,1.79,12.27,5.36,2.95,3.26,4.42,7.12,4.42,11.57s-1.56,8.39-4.68,11.73c-3.12,3.35-7.12,5.02-12.02,5.02s-8.93-1.67-12.05-5.02c-3.12-3.35-4.68-7.26-4.68-11.73s1.47-8.28,4.42-11.54c3.24-3.59,7.34-5.39,12.3-5.39ZM902.55,142.44c-3.43,0-6.37,1.27-8.83,3.8-2.46,2.53-3.69,5.59-3.69,9.19,0,2.32.56,4.48,1.68,6.48,1.12,2,2.64,3.55,4.55,4.64,1.91,1.09,4.01,1.63,6.29,1.63s4.38-.54,6.29-1.63c1.91-1.09,3.43-2.64,4.55-4.64,1.12-2,1.68-4.16,1.68-6.48,0-3.59-1.24-6.65-3.71-9.19-2.47-2.53-5.41-3.8-8.82-3.8Z"/>
    <path class="cls-1" d="M942.05,138.41c4.94,0,9.03,1.79,12.27,5.36,2.95,3.26,4.42,7.12,4.42,11.57s-1.56,8.39-4.68,11.73c-3.12,3.35-7.12,5.02-12.02,5.02s-8.93-1.67-12.05-5.02c-3.12-3.35-4.68-7.26-4.68-11.73s1.47-8.28,4.42-11.54c3.24-3.59,7.34-5.39,12.3-5.39ZM942.04,142.44c-3.43,0-6.37,1.27-8.83,3.8-2.46,2.53-3.69,5.59-3.69,9.19,0,2.32.56,4.48,1.68,6.48,1.12,2,2.64,3.55,4.55,4.64,1.91,1.09,4.01,1.63,6.29,1.63s4.38-.54,6.29-1.63c1.91-1.09,3.43-2.64,4.55-4.64,1.12-2,1.68-4.16,1.68-6.48,0-3.59-1.24-6.65-3.71-9.19-2.47-2.53-5.41-3.8-8.82-3.8Z"/>
    <path class="cls-1" d="M966.64,171.27v-44.4h4.12v17.87c1.73-2.12,3.66-3.7,5.79-4.76,2.14-1.05,4.48-1.58,7.03-1.58,4.53,0,8.4,1.64,11.6,4.93,3.21,3.29,4.81,7.28,4.81,11.97s-1.62,8.59-4.85,11.87c-3.24,3.28-7.13,4.92-11.68,4.92-2.61,0-4.97-.56-7.09-1.68-2.12-1.12-3.99-2.8-5.62-5.03v5.89h-4.12ZM983.13,168.12c2.29,0,4.41-.56,6.35-1.69,1.94-1.13,3.48-2.71,4.63-4.76,1.15-2.04,1.72-4.2,1.72-6.48s-.58-4.45-1.73-6.51c-1.16-2.06-2.71-3.67-4.66-4.81-1.95-1.15-4.03-1.72-6.24-1.72s-4.39.57-6.42,1.72-3.58,2.69-4.67,4.64c-1.09,1.94-1.63,4.13-1.63,6.57,0,3.71,1.22,6.81,3.66,9.3,2.44,2.49,5.44,3.74,9,3.74Z"/>
  </g>
</svg>