<?xml version="1.0" encoding="UTF-8"?>
<svg id="Capa_1" data-name="Capa 1" xmlns="http://www.w3.org/2000/svg" viewBox="0 0 1000 1000">
  <defs>
    <style>
      .cls-1 {
        fill: #fff;
        stroke-width: 0px;
      }
    </style>
  </defs>
  <path class="cls-1" d="M500,90.09c133.51,0,149.32.51,202.04,2.91,48.75,2.22,75.22,10.37,92.84,17.22,23.34,9.07,39.99,19.91,57.49,37.4,17.5,17.5,28.33,34.15,37.4,57.49,6.85,17.62,14.99,44.1,17.22,92.84,2.41,52.72,2.91,68.54,2.91,202.04s-.51,149.32-2.91,202.04c-2.22,48.75-10.37,75.22-17.22,92.84-9.07,23.34-19.91,39.99-37.4,57.49-17.5,17.5-34.15,28.33-57.49,37.4-17.62,6.85-44.1,14.99-92.84,17.22-52.71,2.41-68.53,2.91-202.04,2.91s-149.33-.49-202.04-2.89c-48.75-2.22-75.22-10.37-92.84-17.22-23.34-9.07-40-19.91-57.49-37.4-17.5-17.5-28.33-34.15-37.4-57.49-6.85-17.62-14.99-44.1-17.22-92.84-2.41-52.72-2.91-68.54-2.91-202.04s.5-149.33,2.9-202.05c2.22-48.75,10.37-75.22,17.22-92.84,9.07-23.34,19.91-39.99,37.4-57.49s34.15-28.33,57.49-37.4c17.62-6.85,44.09-14.99,92.84-17.22,52.73-2.41,68.54-2.92,202.05-2.92M500,0c-135.79,0-152.82.58-206.15,3.01-53.22,2.43-89.57,10.88-121.37,23.24-32.88,12.78-60.76,29.87-88.56,57.67s-44.89,55.68-57.67,88.56c-12.36,31.81-20.81,68.15-23.24,121.37-2.44,53.33-3.01,70.36-3.01,206.15s.57,152.82,3.01,206.15c2.43,53.22,10.88,89.57,23.24,121.37,12.78,32.88,29.87,60.76,57.67,88.56,27.8,27.8,55.68,44.89,88.56,57.67,31.81,12.36,68.15,20.81,121.37,23.24,53.33,2.43,70.36,3.01,206.15,3.01s152.82-.57,206.15-3.01c53.22-2.43,89.57-10.88,121.37-23.24,32.88-12.78,60.76-29.87,88.56-57.67s44.89-55.68,57.67-88.56c12.36-31.81,20.81-68.15,23.24-121.37,2.43-53.33,3.01-70.36,3.01-206.15s-.58-152.82-3.01-206.15c-2.43-53.22-10.88-89.57-23.24-121.37-12.78-32.88-29.87-60.76-57.67-88.56s-55.68-44.89-88.56-57.67c-31.81-12.36-68.15-20.81-121.37-23.24-53.33-2.43-70.36-3.01-206.15-3.01ZM500,243.24c-141.8,0-256.76,114.95-256.76,256.76s114.96,256.76,256.76,256.76,256.76-114.96,256.76-256.76-114.96-256.76-256.76-256.76ZM500,666.67c-92.05,0-166.67-74.62-166.67-166.67s74.62-166.67,166.67-166.67,166.67,74.62,166.67,166.67-74.62,166.67-166.67,166.67ZM826.9,233.1c0,33.14-26.86,60-60,60s-60-26.86-60-60,26.86-60,60-60,60,26.86,60,60Z"/>
</svg>